<svg aria-hidden="true" style="position: absolute; width: 0; height: 0; overflow: hidden;" version="1.1" xmlns="http://www.w3.org/2000/svg" xmlns:xlink="http://www.w3.org/1999/xlink">
<defs>
<symbol id="icon-Less-Info-Button" viewBox="0 0 32 32">
<path d="M16 26.88c-6.016 0-10.88-4.864-10.88-10.88s4.864-10.88 10.88-10.88c6.016 0 10.88 4.864 10.88 10.88s-4.864 10.88-10.88 10.88zM16 6.4c-5.312 0-9.6 4.288-9.6 9.6s4.288 9.6 9.6 9.6c5.312 0 9.6-4.288 9.6-9.6s-4.288-9.6-9.6-9.6z"></path>
<path d="M10.24 15.36h11.52v1.28h-11.52v-1.28z"></path>
</symbol>
<symbol id="icon-More-info-Button" viewBox="0 0 32 32">
<path d="M16 26.88c-6.016 0-10.88-4.864-10.88-10.88s4.864-10.88 10.88-10.88c6.016 0 10.88 4.864 10.88 10.88s-4.864 10.88-10.88 10.88zM16 6.4c-5.312 0-9.6 4.288-9.6 9.6s4.288 9.6 9.6 9.6c5.312 0 9.6-4.288 9.6-9.6s-4.288-9.6-9.6-9.6z"></path>
<path d="M10.24 15.36h11.52v1.28h-11.52v-1.28z"></path>
<path d="M15.36 10.24h1.28v11.52h-1.28v-11.52z"></path>
</symbol>
<symbol id="icon-arr-right" viewBox="0 0 32 32">
<path d="M16 29.609c3.609 0 7.071-1.434 9.623-3.986s3.986-6.014 3.986-9.623c0-3.609-1.434-7.071-3.986-9.623s-6.014-3.986-9.623-3.986c-3.609 0-7.071 1.434-9.623 3.986s-3.986 6.014-3.986 9.623c0 3.609 1.434 7.071 3.986 9.623s6.014 3.986 9.623 3.986zM31.816 16c0 8.735-7.081 15.816-15.816 15.816s-15.816-7.081-15.816-15.816c0-8.735 7.081-15.816 15.816-15.816s15.816 7.081 15.816 15.816zM16.692 21.194c-0.207-0.207-0.323-0.487-0.323-0.78s0.116-0.573 0.323-0.78l2.531-2.531h-9.107c-0.293 0-0.573-0.116-0.78-0.323s-0.323-0.488-0.323-0.78c0-0.293 0.116-0.573 0.323-0.78s0.488-0.323 0.78-0.323h9.107l-2.531-2.531c-0.108-0.101-0.195-0.223-0.256-0.358s-0.093-0.281-0.095-0.43c-0.003-0.148 0.025-0.295 0.080-0.433s0.138-0.262 0.243-0.367c0.105-0.105 0.23-0.187 0.367-0.243s0.285-0.083 0.433-0.080c0.148 0.003 0.294 0.035 0.43 0.095s0.257 0.147 0.358 0.256l4.414 4.414c0.207 0.207 0.323 0.487 0.323 0.78s-0.116 0.573-0.323 0.78l-4.414 4.414c-0.207 0.207-0.487 0.323-0.78 0.323s-0.573-0.116-0.78-0.323z"></path>
</symbol>
<symbol id="icon-arr-left" viewBox="0 0 32 32">
<path d="M16 2.391c-3.609 0-7.071 1.434-9.623 3.986s-3.986 6.014-3.986 9.623 1.434 7.071 3.986 9.623c2.552 2.552 6.014 3.986 9.623 3.986s7.071-1.434 9.623-3.986c2.552-2.552 3.986-6.014 3.986-9.623s-1.434-7.071-3.986-9.623c-2.552-2.552-6.014-3.986-9.623-3.986zM0.184 16c0-8.735 7.081-15.816 15.816-15.816s15.816 7.081 15.816 15.816c0 8.735-7.081 15.816-15.816 15.816s-15.816-7.081-15.816-15.816zM15.309 10.806c0.207 0.207 0.323 0.487 0.323 0.78s-0.116 0.573-0.323 0.78l-2.531 2.531h9.107c0.293 0 0.573 0.116 0.78 0.323s0.323 0.488 0.323 0.78-0.116 0.573-0.323 0.78c-0.207 0.207-0.488 0.323-0.78 0.323h-9.107l2.531 2.531c0.108 0.101 0.195 0.223 0.256 0.358s0.093 0.282 0.095 0.43c0.003 0.148-0.025 0.295-0.080 0.433s-0.138 0.262-0.243 0.367-0.23 0.187-0.367 0.243c-0.137 0.055-0.285 0.083-0.433 0.080s-0.294-0.035-0.43-0.095c-0.135-0.060-0.257-0.147-0.358-0.256l-4.414-4.414c-0.207-0.207-0.323-0.487-0.323-0.78s0.116-0.573 0.323-0.78l4.414-4.414c0.207-0.207 0.487-0.323 0.78-0.323s0.573 0.116 0.78 0.323z"></path>
</symbol>
<symbol id="icon-akar-icons_discord-fill" viewBox="0 0 33 32">
<path d="M27.623 5.989c-2.040-0.92-4.227-1.6-6.513-1.987-0.020-0.004-0.041-0.001-0.060 0.007s-0.035 0.023-0.045 0.041c-0.28 0.492-0.592 1.133-0.811 1.64-2.425-0.362-4.891-0.362-7.316 0-0.243-0.562-0.517-1.11-0.823-1.64-0.011-0.018-0.026-0.032-0.045-0.041s-0.040-0.012-0.060-0.010c-2.285 0.387-4.472 1.067-6.513 1.988-0.017 0.009-0.031 0.021-0.043 0.036-4.149 6.1-5.287 12.049-4.728 17.924 0.002 0.014 0.006 0.028 0.013 0.041s0.017 0.024 0.028 0.032c2.421 1.764 5.123 3.107 7.991 3.973 0.020 0.006 0.041 0.006 0.061-0.001s0.038-0.018 0.051-0.034c0.616-0.826 1.163-1.701 1.635-2.617 0.007-0.012 0.010-0.026 0.011-0.040s-0.002-0.028-0.007-0.041c-0.005-0.013-0.013-0.025-0.023-0.035s-0.022-0.017-0.036-0.022c-0.862-0.323-1.696-0.715-2.496-1.171-0.014-0.008-0.027-0.020-0.035-0.034s-0.014-0.030-0.015-0.047 0.002-0.033 0.009-0.048c0.007-0.015 0.017-0.028 0.031-0.038 0.169-0.124 0.334-0.252 0.496-0.383 0.015-0.011 0.032-0.018 0.050-0.020s0.037 0 0.054 0.007c5.236 2.352 10.907 2.352 16.081 0 0.017-0.007 0.036-0.010 0.054-0.008s0.036 0.009 0.051 0.020c0.16 0.132 0.325 0.26 0.496 0.384 0.013 0.010 0.024 0.023 0.031 0.038s0.010 0.031 0.010 0.048c-0.001 0.017-0.006 0.033-0.014 0.047s-0.020 0.026-0.035 0.034c-0.796 0.458-1.628 0.848-2.497 1.169-0.013 0.005-0.026 0.012-0.036 0.022s-0.018 0.022-0.023 0.035c-0.005 0.013-0.007 0.027-0.007 0.042s0.005 0.028 0.011 0.041c0.48 0.916 1.029 1.788 1.633 2.616 0.013 0.017 0.030 0.029 0.050 0.036s0.041 0.007 0.062 0.002c2.872-0.865 5.578-2.209 8.003-3.975 0.012-0.009 0.021-0.019 0.029-0.032s0.012-0.026 0.014-0.040c0.667-6.792-1.117-12.693-4.732-17.923-0.009-0.017-0.024-0.030-0.041-0.037zM11.227 20.371c-1.576 0-2.876-1.425-2.876-3.173 0-1.749 1.275-3.173 2.876-3.173 1.613 0 2.901 1.436 2.876 3.173 0 1.749-1.275 3.173-2.876 3.173zM21.86 20.371c-1.577 0-2.876-1.425-2.876-3.173 0-1.749 1.273-3.173 2.876-3.173 1.613 0 2.901 1.436 2.876 3.173 0 1.749-1.261 3.173-2.876 3.173z"></path>
</symbol>
<symbol id="icon-bi_facebook" viewBox="0 0 33 32">
<path d="M32.533 16.098c0-8.892-7.164-16.1-16-16.1-8.84 0.002-16.004 7.208-16.004 16.102 0 8.034 5.852 14.694 13.5 15.902v-11.25h-4.060v-4.652h4.064v-3.55c0-4.034 2.39-6.262 6.044-6.262 1.752 0 3.582 0.314 3.582 0.314v3.96h-2.018c-1.986 0-2.606 1.242-2.606 2.516v3.020h4.436l-0.708 4.652h-3.73v11.25c7.648-1.208 13.5-7.868 13.5-15.902z"></path>
</symbol>
<symbol id="icon-mail" viewBox="0 0 33 32">
<path d="M5.867 26.667c-0.733 0-1.361-0.261-1.883-0.783s-0.783-1.15-0.784-1.884v-16c0-0.733 0.261-1.361 0.784-1.883s1.15-0.783 1.883-0.784h21.333c0.733 0 1.361 0.261 1.884 0.784s0.783 1.15 0.783 1.883v16c0 0.733-0.261 1.361-0.783 1.884s-1.15 0.783-1.884 0.783h-21.333zM27.2 10.667l-9.967 6.233c-0.111 0.067-0.228 0.117-0.349 0.151s-0.239 0.050-0.351 0.049c-0.112-0.001-0.228-0.017-0.349-0.049s-0.238-0.082-0.351-0.151l-9.967-6.233v13.333h21.333v-13.333zM16.533 14.667l10.667-6.667h-21.333l10.667 6.667zM5.867 11v0z"></path>
</symbol>
<symbol id="icon-prime_twitter" viewBox="0 0 33 32">
<path d="M25.733 1.499h4.907l-10.72 12.283 12.613 16.718h-9.874l-7.74-10.137-8.846 10.137h-4.912l11.465-13.143-12.094-15.856h10.126l6.985 9.264 8.089-9.266zM24.008 27.557h2.72l-17.554-23.266h-2.917l17.751 23.266z"></path>
</symbol>
<symbol id="icon-ri_instagram-fill" viewBox="0 0 33 32">
<path d="M17.904 2.667c1.5 0.004 2.261 0.012 2.919 0.031l0.259 0.009c0.299 0.011 0.593 0.024 0.949 0.040 1.419 0.067 2.387 0.291 3.236 0.62 0.88 0.339 1.621 0.797 2.363 1.537 0.678 0.666 1.203 1.473 1.537 2.363 0.329 0.849 0.553 1.817 0.62 3.237 0.016 0.355 0.029 0.649 0.040 0.949l0.008 0.259c0.020 0.656 0.028 1.417 0.031 2.917l0.001 0.995v1.747c0.003 0.973-0.007 1.945-0.031 2.917l-0.008 0.259c-0.011 0.3-0.024 0.595-0.040 0.949-0.067 1.42-0.293 2.387-0.621 3.237-0.334 0.89-0.859 1.696-1.537 2.363-0.666 0.678-1.473 1.203-2.363 1.537-0.849 0.329-1.817 0.553-3.236 0.62l-0.949 0.040-0.259 0.008c-0.657 0.019-1.419 0.028-2.919 0.031l-2.74 0.001c-0.973 0.003-1.946-0.007-2.919-0.031l-0.259-0.008c-0.317-0.012-0.633-0.026-0.949-0.041-1.419-0.067-2.387-0.291-3.237-0.62-0.89-0.335-1.695-0.859-2.361-1.537-0.679-0.666-1.204-1.473-1.539-2.363-0.329-0.849-0.553-1.817-0.62-3.237l-0.040-0.949-0.007-0.259c-0.025-0.972-0.036-1.945-0.033-2.917v-2.741c-0.004-0.972 0.006-1.945 0.029-2.917l0.009-0.259c0.011-0.3 0.024-0.595 0.040-0.949 0.067-1.42 0.291-2.387 0.62-3.237 0.336-0.89 0.862-1.697 1.541-2.363 0.666-0.678 1.471-1.203 2.36-1.537 0.851-0.329 1.817-0.553 3.237-0.62 0.355-0.016 0.651-0.029 0.949-0.040l0.259-0.008c0.972-0.024 1.945-0.034 2.917-0.031l2.741-0.001zM16.533 9.333c-1.768 0-3.464 0.702-4.714 1.953s-1.953 2.946-1.953 4.714 0.702 3.464 1.953 4.714c1.25 1.25 2.946 1.953 4.714 1.953s3.464-0.702 4.714-1.953c1.25-1.25 1.953-2.946 1.953-4.714s-0.702-3.464-1.953-4.714c-1.25-1.25-2.946-1.953-4.714-1.953zM16.533 12c0.525-0 1.045 0.103 1.531 0.304s0.926 0.495 1.298 0.867c0.372 0.371 0.666 0.812 0.867 1.298s0.305 1.005 0.305 1.531c0 0.525-0.103 1.045-0.304 1.531s-0.495 0.926-0.867 1.298c-0.371 0.372-0.812 0.666-1.298 0.867s-1.005 0.305-1.531 0.305c-1.061 0-2.078-0.421-2.828-1.172s-1.172-1.768-1.172-2.828 0.421-2.078 1.172-2.828c0.75-0.75 1.768-1.172 2.828-1.172zM23.535 7.333c-0.442 0-0.866 0.176-1.178 0.488s-0.488 0.736-0.488 1.178 0.176 0.866 0.488 1.178c0.313 0.313 0.736 0.488 1.178 0.488s0.866-0.176 1.179-0.488c0.313-0.313 0.488-0.736 0.488-1.178s-0.176-0.866-0.488-1.178c-0.313-0.313-0.737-0.488-1.179-0.488z"></path>
</symbol>
<symbol id="icon-Vector2" viewBox="0 0 33 32">
<path d="M16.485 31.826c-8.751 0-15.825-7.075-15.825-15.825s7.075-15.825 15.825-15.825c8.751 0 15.825 7.075 15.825 15.825s-7.075 15.825-15.825 15.825zM16.485 2.037c-7.727 0-13.964 6.237-13.964 13.964s6.237 13.964 13.964 13.964c7.727 0 13.964-6.237 13.964-13.964s-6.237-13.964-13.964-13.964z"></path>
</symbol>
<symbol id="icon-Vector3" viewBox="0 0 32 32">
<path d="M16 19.111l-10.889 10.889c-0.407 0.407-0.926 0.611-1.556 0.611s-1.148-0.204-1.556-0.611c-0.407-0.407-0.611-0.926-0.611-1.556s0.204-1.148 0.611-1.556l10.889-10.889-10.889-10.889c-0.407-0.407-0.611-0.926-0.611-1.556s0.204-1.148 0.611-1.556c0.407-0.407 0.926-0.611 1.556-0.611s1.148 0.204 1.556 0.611l10.889 10.889 10.889-10.889c0.407-0.407 0.926-0.611 1.556-0.611s1.148 0.204 1.556 0.611c0.407 0.407 0.611 0.926 0.611 1.556s-0.204 1.148-0.611 1.556l-10.889 10.889 10.889 10.889c0.407 0.407 0.611 0.926 0.611 1.556s-0.204 1.148-0.611 1.556c-0.407 0.407-0.926 0.611-1.556 0.611s-1.148-0.204-1.556-0.611l-10.889-10.889z"></path>
</symbol>
<symbol id="icon-burger" viewBox="0 0 32 32">
<path stroke-linejoin="round" stroke-linecap="round" stroke-miterlimit="4" stroke-width="3.3333" d="M4 8h24M4 16h24M4 24h24"></path>
</symbol>
<symbol id="icon-burger-menu" viewBox="0 0 32 32">
<path stroke-linejoin="round" stroke-linecap="round" stroke-miterlimit="4" stroke-width="3.3333" d="M4 8h24M4 16h24M4 24h24"></path>
</symbol>
<symbol id="icon-exit-button" viewBox="0 0 32 32">
<path stroke-linejoin="round" stroke-linecap="round" stroke-miterlimit="4" stroke-width="3" d="M24 8l-16 16"></path>
<path stroke-linejoin="round" stroke-linecap="round" stroke-miterlimit="4" stroke-width="3" d="M8 8l16 16"></path>
</symbol>
<symbol id="icon-up-circle" viewBox="0 0 32 32">
<path d="M4.451 6.051c-2.87 2.87-4.451 6.688-4.451 10.749s1.581 7.877 4.451 10.749 6.688 4.451 10.749 4.451 7.877-1.581 10.749-4.451 4.451-6.688 4.451-10.747-1.581-7.877-4.451-10.749-6.688-4.451-10.749-4.451-7.877 1.581-10.749 4.451zM28.8 16.8c0 7.499-6.101 13.6-13.6 13.6s-13.6-6.101-13.6-13.6c0-7.499 6.101-13.6 13.6-13.6s13.6 6.101 13.6 13.6z"></path>
<path d="M24 19.2c0 0.205-0.078 0.41-0.234 0.566-0.312 0.312-0.819 0.312-1.131 0l-7.434-7.434-7.434 7.434c-0.312 0.312-0.819 0.312-1.131 0s-0.312-0.819 0-1.131l8-8c0.312-0.312 0.819-0.312 1.131 0l8 8c0.157 0.157 0.234 0.362 0.234 0.566z"></path>
</symbol>
<symbol id="icon-moon" viewBox="0 0 32 32">
<path d="M27.656 17.393c-0.904 0.24-1.835 0.361-2.769 0.361-2.847 0-5.52-1.107-7.528-3.115-1.319-1.326-2.267-2.975-2.749-4.782s-0.484-3.709-0.003-5.516c0.060-0.226 0.060-0.464-0.001-0.689s-0.18-0.432-0.345-0.597-0.371-0.284-0.597-0.344c-0.226-0.060-0.464-0.060-0.69 0-2.262 0.603-4.327 1.79-5.985 3.443-5.197 5.197-5.197 13.657 0 18.857 1.235 1.242 2.705 2.227 4.323 2.898s3.354 1.013 5.106 1.009c1.751 0.005 3.487-0.338 5.105-1.008s3.087-1.655 4.322-2.897c1.654-1.659 2.841-3.724 3.444-5.988 0.060-0.226 0.059-0.463-0.001-0.689s-0.18-0.431-0.345-0.597c-0.165-0.165-0.371-0.284-0.597-0.345s-0.463-0.061-0.689-0.001zM23.96 23.128c-0.988 0.993-2.163 1.781-3.458 2.317s-2.683 0.81-4.084 0.807c-1.402 0.003-2.79-0.271-4.085-0.807s-2.471-1.324-3.459-2.318c-4.157-4.159-4.157-10.927 0-15.085 0.803-0.802 1.731-1.47 2.747-1.977-0.149 1.919 0.119 3.847 0.784 5.653s1.712 3.447 3.070 4.811c1.361 1.362 3.002 2.412 4.808 3.077s3.736 0.931 5.656 0.777c-0.51 1.014-1.178 1.941-1.979 2.745z"></path>
</symbol>
<symbol id="icon-arrow-up2" viewBox="0 0 32 32">
<path d="M27.414 12.586l-10-10c-0.781-0.781-2.047-0.781-2.828 0l-10 10c-0.781 0.781-0.781 2.047 0 2.828s2.047 0.781 2.828 0l6.586-6.586v19.172c0 1.105 0.895 2 2 2s2-0.895 2-2v-19.172l6.586 6.586c0.39 0.39 0.902 0.586 1.414 0.586s1.024-0.195 1.414-0.586c0.781-0.781 0.781-2.047 0-2.828z"></path>
</symbol>
<symbol id="icon-sun" viewBox="0 0 32 32">
<path d="M9.324 16c0 3.681 2.995 6.676 6.676 6.676s6.676-2.995 6.676-6.676-2.995-6.676-6.676-6.676c-3.681 0-6.676 2.995-6.676 6.676zM16 11.991c2.211 0 4.009 1.799 4.009 4.009s-1.799 4.009-4.009 4.009c-2.211 0-4.009-1.799-4.009-4.009s1.799-4.009 4.009-4.009zM14.664 25.333h2.667v4h-2.667v-4zM14.664 2.667h2.667v4h-2.667v-4zM2.664 14.667h4v2.667h-4v-2.667zM25.331 14.667h4v2.667h-4v-2.667zM5.625 24.484l2.827-2.829 1.887 1.885-2.827 2.829-1.887-1.885zM21.653 8.459l2.829-2.829 1.885 1.885-2.829 2.829-1.885-1.885zM8.456 10.345l-2.829-2.829 1.887-1.885 2.827 2.829-1.884 1.885zM26.368 24.485l-1.885 1.885-2.829-2.829 1.885-1.885 2.829 2.829z"></path>
</symbol>
</defs>
</svg>